<svg viewBox="0 0 1024 1024" version="1.1" xmlns="http://www.w3.org/2000/svg" width="100%" height="100%" class="_3fYZfW21" aria-hidden="true" fill="currentColor"><path d="M603.4 96c47.7 0 86.9 36.4 91.3 82.9l0.5 8.8-0.1 75.1 168.9 0c24.7 0 44.8 20.1 44.8 44.8 0 22.7-16.9 41.4-38.7 44.4l-6.1 0.4-20.5 0-46.2 436.2c-5.5 52.1-47.2 92.3-98.5 96.9l-9.7 0.4-354.2 0c-52.4 0-96.8-37.2-106.7-87.7l-1.5-9.6-46.2-436.2-20.5 0c-24.7 0-44.8-20.1-44.8-44.8 0-22.7 16.9-41.4 38.7-44.3l6.1-0.5 169 0 0-75.1c0-47.7 36.4-86.9 82.9-91.3l8.8-0.4 182.7 0z m149.9 256.4l-482.7 0 45.2 426.7c0.9 8.4 7.1 15 15 16.8l4.1 0.4 354.2 0c8.4 0 15.7-5.4 18.2-13.1l0.9-4.1 45.1-426.7z m-149.9-166.8l-182.7 0c-0.8 0-1.5 0.4-1.8 1.1l-0.3 1 0 75.1 186.9 0 0.1-75.1c0-0.8-0.4-1.5-1.1-1.8l-1.1-0.3z"></path></svg>