<svg class="_3lgFL9Bw" alt="" xmlns="http://www.w3.org/2000/svg" version="1.1" viewBox="0 0 1024 1024" width="90px" height="90px" fill="#aaaaaa" aria-hidden="true"><path d="M356.7 726.2c-30.6 0-55.5 24.8-55.5 55.5 0 30.6 24.8 55.5 55.5 55.4 30.6 0 55.5-24.8 55.5-55.4 0-30.6-24.8-55.5-55.5-55.5z m0 17.1c21.2 0 38.4 17.2 38.4 38.4 0 21.2-17.2 38.4-38.4 38.4-21.2 0-38.4-17.2-38.4-38.4 0-21.2 17.2-38.4 38.4-38.4z m319.1-17.1c-30.6 0-55.5 24.8-55.4 55.5 0 30.6 24.8 55.5 55.4 55.4 30.6 0 55.5-24.8 55.5-55.4 0-30.6-24.8-55.5-55.5-55.5z m0 17.1c21.2 0 38.4 17.2 38.4 38.4 0 21.2-17.2 38.4-38.4 38.4-21.2 0-38.4-17.2-38.4-38.4 0-21.2 17.2-38.4 38.4-38.4z m-552.8-486.9c4.8 0 9.3 0.3 15.4 1.4 9.3 1.6 18.4 4.6 27 9.4 15.4 8.6 27.5 22 35 40.7l1 2.9 0.4 1.3 8.3 45.7 11.1 63.9 24.8 144.8 7.2 42.8c6.1 34.3 38 60 76 61l2.4 0 358.2 0c38.4 0 71-25.1 78.1-59.4l0.4-2.1 50.1-248.1c0.9-4.6 5.4-7.6 10.1-6.7 4.3 0.9 7.2 4.8 6.8 9.1l-0.1 1-50.2 247.8c-7.4 42.8-46.6 74.3-92.7 75.4l-2.5 0.1-358.2 0c-47.1 0-87.5-31.7-95.2-75.2l-24.4-143.5-15.4-88.8-9-50.4-2.4-13.5-0.9-2.2c-5.6-13.9-14.2-23.7-25-30.4l-2.2-1.3c-6.8-3.8-14.2-6.2-21.7-7.5-4.1-0.7-7.3-1-10.4-1.1l-2 0-87.9 0c-4.7 0-8.5-3.8-8.6-8.5 0-4.4 3.3-8 7.6-8.5l1-0.1 87.9 0z m283.6 265.2l0 17.1-58 0 0-17.1 58 0z m92.2 0l0 17.1-58.1 0 0-17.1 58.1 0z m92.1 0l0 17.1-58 0 0-17.1 58 0z m92.2 0l0 17.1-58 0 0-17.1 58 0z m-329.8-155.8l0 17.1-58 0 0-17.1 58 0z m92.2 0l0 17.1-58 0 0-17.1 58 0z m92.1 0l0 17.1-58 0 0-17.1 58 0z m92.2 0l0 17.1-58 0 0-17.1 58 0z m92.2 0l0 17.1-58.1 0 0-17.1 58.1 0z"></path></svg>