<svg xmlns="http://www.w3.org/2000/svg" xmlns:xlink="http://www.w3.org/1999/xlink" viewBox="0 0 1920 1080" width="100%" height="100%" preserveAspectRatio="xMidYMid meet" style="width: 100%; height: 100%; transform: translate3d(0px, 0px, 0px); content-visibility: visible;"><defs><clipPath id="__lottie_element_2"><rect width="100%" height="100%" x="0" y="0"></rect></clipPath></defs><g clip-path="url(#__lottie_element_2)"><g transform="matrix(0.5295432806015015,0,0,0.5295432806015015,932.3902587890625,486.5550842285156)" opacity="0.33862975619031527" style="display: block;"><g opacity="1" transform="matrix(1,0,0,1,-284,92)"><path fill="rgb(0,97,219)" fill-opacity="1" d=" M0,-60 C33.11399841308594,-60 60,-33.11399841308594 60,0 C60,33.11399841308594 33.11399841308594,60 0,60 C-33.11399841308594,60 -60,33.11399841308594 -60,0 C-60,-33.11399841308594 -33.11399841308594,-60 0,-60z"></path></g></g><g transform="matrix(0.5,0,0,0.5,1044,494)" opacity="0.25" style="display: block;"><g opacity="1" transform="matrix(1,0,0,1,-284,92)"><path fill="rgb(0,97,219)" fill-opacity="1" d=" M0,-60 C33.11399841308594,-60 60,-33.11399841308594 60,0 C60,33.11399841308594 33.11399841308594,60 0,60 C-33.11399841308594,60 -60,33.11399841308594 -60,0 C-60,-33.11399841308594 -33.11399841308594,-60 0,-60z"></path></g></g><g transform="matrix(0.5,0,0,0.5,1164,494)" opacity="0.25" style="display: block;"><g opacity="1" transform="matrix(1,0,0,1,-284,92)"><path fill="rgb(0,97,219)" fill-opacity="1" d=" M0,-60 C33.11399841308594,-60 60,-33.11399841308594 60,0 C60,33.11399841308594 33.11399841308594,60 0,60 C-33.11399841308594,60 -60,33.11399841308594 -60,0 C-60,-33.11399841308594 -33.11399841308594,-60 0,-60z"></path></g></g><g transform="matrix(0.5,0,0,0.5,1284,494)" opacity="0.25" style="display: block;"><g opacity="1" transform="matrix(1,0,0,1,-284,92)"><path fill="rgb(0,97,219)" fill-opacity="1" d=" M0,-60 C33.11399841308594,-60 60,-33.11399841308594 60,0 C60,33.11399841308594 33.11399841308594,60 0,60 C-33.11399841308594,60 -60,33.11399841308594 -60,0 C-60,-33.11399841308594 -33.11399841308594,-60 0,-60z"></path></g></g></g></svg>